<?xml version="1.0" encoding="utf-8"?>
<!-- Generator: Adobe Illustrator 22.0.0, SVG Export Plug-In . SVG Version: 6.00 Build 0)  -->
<svg version="1.1" id="Layer_1" xmlns="http://www.w3.org/2000/svg" xmlns:xlink="http://www.w3.org/1999/xlink" x="0px" y="0px"
	 viewBox="0 0 222 225" style="enable-background:new 0 0 222 225;" xml:space="preserve">
<style type="text/css">
	.st0{fill:#FFFFFF;}
</style>
<g>
	<path class="st0" d="M2,121.2c0-5.8,0-11.6,0-17.4c0.3-0.7,0.7-1.4,0.8-2.2C9.1,55.3,34.9,24.9,78.4,9.2C85.9,6.5,94,5.7,101.8,4
		c5.8,0,11.6,0,17.4,0c0.7,0.3,1.4,0.7,2.2,0.8c46.2,6.4,76.7,32.2,92.4,75.6c2.7,7.4,3.5,15.6,5.2,23.4c0,5.8,0,11.6,0,17.4
		c-0.3,0.7-0.7,1.4-0.8,2.2c-6.4,46.2-32.2,76.7-75.6,92.4c-7.4,2.7-15.6,3.5-23.4,5.2c-5.8,0-11.6,0-17.4,0
		c-0.7-0.3-1.4-0.7-2.2-0.8c-46.2-6.4-76.7-32.2-92.4-75.6C4.5,137.1,3.7,129,2,121.2z M187.2,172.1C215.9,135.9,215.4,77,177,41.4
		C138.3,5.6,77.4,7.1,41,44.3C3.9,82.2,7.3,140,33.9,171.9c11.1-21,27.8-35.5,50.3-43.5C51.8,104.5,56.7,70.3,73,52.5
		c19.3-21.1,49.1-23.3,69.7-5.2c10.8,9.5,17.4,21.4,18,35.7c0.8,19.4-8.5,34.1-24.2,45.4C159.3,136.4,175.9,150.9,187.2,172.1z
		 M109.8,209.5c25.2-0.2,47-8.2,65.8-24.5c2.5-2.2,3.2-3.9,1.6-6.9c-13.7-27-35.5-41.8-65.8-42.1c-31.2-0.4-53.7,14.3-67.8,42.1
		c-1.5,3-1,4.8,1.5,7C63.9,201.1,85.6,209.2,109.8,209.5z M110.9,46.6c-22.6-0.1-39.1,16.1-39.2,38.3c-0.1,22.6,16.1,39.1,38.3,39.2
		c22.6,0.1,39.1-16.1,39.2-38.3C149.3,63.3,133.1,46.7,110.9,46.6z"/>
</g>
</svg>
